<mxfile host="app.diagrams.net" modified="2024-03-06T14:52:21.385Z" agent="Mozilla/5.0 (Macintosh; Intel Mac OS X 10_15_7) AppleWebKit/537.36 (KHTML, like Gecko) Chrome/122.0.0.0 Safari/537.36" etag="k_u5qwa217equSgfyZZL" version="24.0.2" type="device">
  <diagram name="Page-1" id="gRimLw6zEifZDfBcAhXP">
    <mxGraphModel dx="3187" dy="1569" grid="1" gridSize="10" guides="1" tooltips="1" connect="1" arrows="1" fold="1" page="1" pageScale="1" pageWidth="850" pageHeight="1100" math="0" shadow="0">
      <root>
        <mxCell id="0" />
        <mxCell id="1" parent="0" />
        <mxCell id="thXK8nvlUhrA1iitSya8-1" value="" style="rounded=0;whiteSpace=wrap;html=1;" vertex="1" parent="1">
          <mxGeometry x="230" y="290" width="320" height="310" as="geometry" />
        </mxCell>
        <mxCell id="thXK8nvlUhrA1iitSya8-2" value="A" style="rounded=0;whiteSpace=wrap;html=1;fillColor=#dae8fc;strokeColor=#6c8ebf;" vertex="1" parent="1">
          <mxGeometry x="305" y="360" width="120" height="60" as="geometry" />
        </mxCell>
        <mxCell id="thXK8nvlUhrA1iitSya8-3" value="" style="rounded=0;whiteSpace=wrap;html=1;fillColor=#d5e8d4;strokeColor=#82b366;" vertex="1" parent="1">
          <mxGeometry x="425" y="385" width="20" height="15" as="geometry" />
        </mxCell>
        <mxCell id="thXK8nvlUhrA1iitSya8-4" value="" style="rounded=0;whiteSpace=wrap;html=1;fillColor=#d5e8d4;strokeColor=#82b366;" vertex="1" parent="1">
          <mxGeometry x="285" y="382.5" width="20" height="15" as="geometry" />
        </mxCell>
        <mxCell id="thXK8nvlUhrA1iitSya8-5" value="&lt;b&gt;B&lt;/b&gt;" style="rounded=0;whiteSpace=wrap;html=1;fillColor=#dae8fc;strokeColor=#6c8ebf;" vertex="1" parent="1">
          <mxGeometry x="365" y="510" width="120" height="60" as="geometry" />
        </mxCell>
        <mxCell id="thXK8nvlUhrA1iitSya8-6" value="" style="rounded=0;whiteSpace=wrap;html=1;fillColor=#d5e8d4;strokeColor=#82b366;" vertex="1" parent="1">
          <mxGeometry x="345" y="532.5" width="20" height="15" as="geometry" />
        </mxCell>
        <mxCell id="thXK8nvlUhrA1iitSya8-7" value="" style="rounded=0;whiteSpace=wrap;html=1;fillColor=#d5e8d4;strokeColor=#82b366;" vertex="1" parent="1">
          <mxGeometry x="485" y="532.5" width="20" height="15" as="geometry" />
        </mxCell>
        <mxCell id="thXK8nvlUhrA1iitSya8-8" value="" style="rounded=0;whiteSpace=wrap;html=1;fillColor=#d5e8d4;strokeColor=#82b366;" vertex="1" parent="1">
          <mxGeometry x="550" y="410" width="20" height="20" as="geometry" />
        </mxCell>
      </root>
    </mxGraphModel>
  </diagram>
</mxfile>
